HIERARCHY
ROOT mixamorig:Hips
{
	OFFSET 0.000000 201.639420 0.000000
	CHANNELS 6 Xposition Yposition Zposition Xrotation Yrotation Zrotation
	JOINT mixamorig:Spine
	{
		OFFSET 0.006200 19.524994 -2.481800
		CHANNELS 3 Xrotation Yrotation Zrotation
		JOINT mixamorig:Spine1
		{
			OFFSET -0.000900 22.835007 -2.825400
			CHANNELS 3 Xrotation Yrotation Zrotation
			JOINT mixamorig:Spine2
			{
				OFFSET -0.020600 26.552490 -3.193300
				CHANNELS 3 Xrotation Yrotation Zrotation
				JOINT mixamorig:Neck
				{
					OFFSET -0.060000 30.701813 1.352200
					CHANNELS 3 Xrotation Yrotation Zrotation
					JOINT mixamorig:Head
					{
						OFFSET -0.087200 22.547607 3.670900
						CHANNELS 3 Xrotation Yrotation Zrotation
						JOINT mixamorig:HeadTop_End
						{
							OFFSET -0.830600 40.355194 7.893500
							CHANNELS 3 Xrotation Yrotation Zrotation
							End Site
							{
								OFFSET 0.000000 30.592346 0.000000
							}
						}
						JOINT mixamorig:RightEye
						{
							OFFSET -6.302100 18.118591 16.197100
							CHANNELS 3 Xrotation Yrotation Zrotation
							End Site
							{
								OFFSET 0.000000 30.592346 0.000000
							}
						}
						JOINT mixamorig:LeftEye
						{
							OFFSET 6.741500 18.382690 16.401899
							CHANNELS 3 Xrotation Yrotation Zrotation
							End Site
							{
								OFFSET 0.000000 30.592346 0.000000
							}
						}
					}
				}
				JOINT mixamorig:LeftShoulder
				{
					OFFSET 11.924900 18.230499 1.425400
					CHANNELS 3 Xrotation Yrotation Zrotation
					JOINT mixamorig:LeftArm
					{
						OFFSET 25.435989 -0.697632 -5.229300
						CHANNELS 3 Xrotation Yrotation Zrotation
						JOINT mixamorig:LeftForeArm
						{
							OFFSET 54.684776 0.000000 0.000000
							CHANNELS 3 Xrotation Yrotation Zrotation
							JOINT mixamorig:LeftHand
							{
								OFFSET 55.098175 0.000000 0.000000
								CHANNELS 3 Xrotation Yrotation Zrotation
								JOINT mixamorig:LeftHandMiddle1
								{
									OFFSET 23.369751 0.000000 0.000000
									CHANNELS 3 Xrotation Yrotation Zrotation
									JOINT mixamorig:LeftHandMiddle2
									{
										OFFSET 6.378677 0.000000 0.000000
										CHANNELS 3 Xrotation Yrotation Zrotation
										JOINT mixamorig:LeftHandMiddle3
										{
											OFFSET 6.148331 0.000000 0.000000
											CHANNELS 3 Xrotation Yrotation Zrotation
											JOINT mixamorig:LeftHandMiddle4
											{
												OFFSET 6.582504 0.000000 0.000000
												CHANNELS 3 Xrotation Yrotation Zrotation
												End Site
												{
													OFFSET -1.168900 6.395691 1.028606
												}
											}
										}
									}
								}
								JOINT mixamorig:LeftHandThumb1
								{
									OFFSET 7.235672 -3.848206 5.434273
									CHANNELS 3 Xrotation Yrotation Zrotation
									JOINT mixamorig:LeftHandThumb2
									{
										OFFSET 6.568451 -3.792297 3.792300
										CHANNELS 3 Xrotation Yrotation Zrotation
										JOINT mixamorig:LeftHandThumb3
										{
											OFFSET 6.063080 -3.500519 3.500518
											CHANNELS 3 Xrotation Yrotation Zrotation
											JOINT mixamorig:LeftHandThumb4
											{
												OFFSET 4.793182 -2.767334 2.767349
												CHANNELS 3 Xrotation Yrotation Zrotation
												End Site
												{
													OFFSET 0.101639 6.054260 1.275483
												}
											}
										}
									}
								}
								JOINT mixamorig:LeftHandIndex1
								{
									OFFSET 23.101074 -0.309540 4.992809
									CHANNELS 3 Xrotation Yrotation Zrotation
									JOINT mixamorig:LeftHandIndex2
									{
										OFFSET 6.226883 0.000000 0.000000
										CHANNELS 3 Xrotation Yrotation Zrotation
										JOINT mixamorig:LeftHandIndex3
										{
											OFFSET 6.094330 0.000000 0.000000
											CHANNELS 3 Xrotation Yrotation Zrotation
											JOINT mixamorig:LeftHandIndex4
											{
												OFFSET 5.482605 0.000000 0.000000
												CHANNELS 3 Xrotation Yrotation Zrotation
												End Site
												{
													OFFSET -1.427902 5.233032 0.797164
												}
											}
										}
									}
								}
								JOINT mixamorig:LeftHandRing1
								{
									OFFSET 22.299240 0.021149 -3.964172
									CHANNELS 3 Xrotation Yrotation Zrotation
									JOINT mixamorig:LeftHandRing2
									{
										OFFSET 6.321869 0.000000 0.000000
										CHANNELS 3 Xrotation Yrotation Zrotation
										JOINT mixamorig:LeftHandRing3
										{
											OFFSET 5.899796 0.000000 0.000000
											CHANNELS 3 Xrotation Yrotation Zrotation
											JOINT mixamorig:LeftHandRing4
											{
												OFFSET 6.517899 0.000000 0.000000
												CHANNELS 3 Xrotation Yrotation Zrotation
												End Site
												{
													OFFSET -1.637299 6.232208 0.980890
												}
											}
										}
									}
								}
								JOINT mixamorig:LeftHandPinky1
								{
									OFFSET 20.463791 -0.302338 -8.562233
									CHANNELS 3 Xrotation Yrotation Zrotation
									JOINT mixamorig:LeftHandPinky2
									{
										OFFSET 6.908646 0.000000 0.000000
										CHANNELS 3 Xrotation Yrotation Zrotation
										JOINT mixamorig:LeftHandPinky3
										{
											OFFSET 4.622849 0.000000 0.000000
											CHANNELS 3 Xrotation Yrotation Zrotation
											JOINT mixamorig:LeftHandPinky4
											{
												OFFSET 5.216080 0.000000 0.000000
												CHANNELS 3 Xrotation Yrotation Zrotation
												End Site
												{
													OFFSET -0.606308 5.116241 0.814926
												}
											}
										}
									}
								}
							}
						}
					}
				}
				JOINT mixamorig:RightShoulder
				{
					OFFSET -12.001300 18.284088 1.348900
					CHANNELS 3 Xrotation Yrotation Zrotation
					JOINT mixamorig:RightArm
					{
						OFFSET -25.308500 -0.751312 -5.164599
						CHANNELS 3 Xrotation Yrotation Zrotation
						JOINT mixamorig:RightForeArm
						{
							OFFSET -54.684429 0.000000 0.000000
							CHANNELS 3 Xrotation Yrotation Zrotation
							JOINT mixamorig:RightHand
							{
								OFFSET -55.150291 0.000000 0.000000
								CHANNELS 3 Xrotation Yrotation Zrotation
								JOINT mixamorig:RightHandMiddle1
								{
									OFFSET -23.317566 0.000000 0.000000
									CHANNELS 3 Xrotation Yrotation Zrotation
									JOINT mixamorig:RightHandMiddle2
									{
										OFFSET -6.378403 0.000000 0.000000
										CHANNELS 3 Xrotation Yrotation Zrotation
										JOINT mixamorig:RightHandMiddle3
										{
											OFFSET -6.148193 0.000000 0.000000
											CHANNELS 3 Xrotation Yrotation Zrotation
											JOINT mixamorig:RightHandMiddle4
											{
												OFFSET -6.583389 0.000000 0.000000
												CHANNELS 3 Xrotation Yrotation Zrotation
												End Site
												{
													OFFSET 1.171692 6.395905 1.029786
												}
											}
										}
									}
								}
								JOINT mixamorig:RightHandThumb1
								{
									OFFSET -7.190521 -3.860474 5.435846
									CHANNELS 3 Xrotation Yrotation Zrotation
									JOINT mixamorig:RightHandThumb2
									{
										OFFSET -6.567429 -3.791718 3.791708
										CHANNELS 3 Xrotation Yrotation Zrotation
										JOINT mixamorig:RightHandThumb3
										{
											OFFSET -6.062469 -3.500153 3.500166
											CHANNELS 3 Xrotation Yrotation Zrotation
											JOINT mixamorig:RightHandThumb4
											{
												OFFSET -4.792618 -2.767029 2.767022
												CHANNELS 3 Xrotation Yrotation Zrotation
												End Site
												{
													OFFSET -0.100327 6.053253 1.276754
												}
											}
										}
									}
								}
								JOINT mixamorig:RightHandIndex1
								{
									OFFSET -23.048981 -0.310791 4.992554
									CHANNELS 3 Xrotation Yrotation Zrotation
									JOINT mixamorig:RightHandIndex2
									{
										OFFSET -6.227539 0.000000 0.000000
										CHANNELS 3 Xrotation Yrotation Zrotation
										JOINT mixamorig:RightHandIndex3
										{
											OFFSET -6.095047 0.000000 0.000000
											CHANNELS 3 Xrotation Yrotation Zrotation
											JOINT mixamorig:RightHandIndex4
											{
												OFFSET -5.484772 0.000000 0.000000
												CHANNELS 3 Xrotation Yrotation Zrotation
												End Site
												{
													OFFSET 1.420593 5.237305 0.797056
												}
											}
										}
									}
								}
								JOINT mixamorig:RightHandRing1
								{
									OFFSET -22.246323 0.020569 -3.963762
									CHANNELS 3 Xrotation Yrotation Zrotation
									JOINT mixamorig:RightHandRing2
									{
										OFFSET -6.322128 0.000000 0.000000
										CHANNELS 3 Xrotation Yrotation Zrotation
										JOINT mixamorig:RightHandRing3
										{
											OFFSET -5.900024 0.000000 0.000000
											CHANNELS 3 Xrotation Yrotation Zrotation
											JOINT mixamorig:RightHandRing4
											{
												OFFSET -6.518356 0.000000 0.000000
												CHANNELS 3 Xrotation Yrotation Zrotation
												End Site
												{
													OFFSET 1.636398 6.232697 0.982186
												}
											}
										}
									}
								}
								JOINT mixamorig:RightHandPinky1
								{
									OFFSET -20.411011 -0.303314 -8.561701
									CHANNELS 3 Xrotation Yrotation Zrotation
									JOINT mixamorig:RightHandPinky2
									{
										OFFSET -6.907349 0.000000 0.000000
										CHANNELS 3 Xrotation Yrotation Zrotation
										JOINT mixamorig:RightHandPinky3
										{
											OFFSET -4.623840 0.000000 0.000000
											CHANNELS 3 Xrotation Yrotation Zrotation
											JOINT mixamorig:RightHandPinky4
											{
												OFFSET -5.218353 0.000000 0.000000
												CHANNELS 3 Xrotation Yrotation Zrotation
												End Site
												{
													OFFSET 0.602097 5.118835 0.816273
												}
											}
										}
									}
								}
							}
						}
					}
				}
			}
		}
	}
	JOINT mixamorig:LeftUpLeg
	{
		OFFSET 18.168400 -13.561905 -0.039000
		CHANNELS 3 Xrotation Yrotation Zrotation
		JOINT mixamorig:LeftLeg
		{
			OFFSET 0.577358 -80.825211 -3.695000
			CHANNELS 3 Xrotation Yrotation Zrotation
			JOINT mixamorig:LeftFoot
			{
				OFFSET -0.577356 -83.370262 -6.520700
				CHANNELS 3 Xrotation Yrotation Zrotation
				JOINT mixamorig:LeftToeBase
				{
					OFFSET 0.750401 -20.798306 25.135401
					CHANNELS 3 Xrotation Yrotation Zrotation
					JOINT mixamorig:LeftToe_End
					{
						OFFSET -0.000500 0.001200 19.917799
						CHANNELS 3 Xrotation Yrotation Zrotation
						End Site
						{
							OFFSET 0.000000 19.917805 0.000000
						}
					}
				}
			}
		}
	}
	JOINT mixamorig:RightUpLeg
	{
		OFFSET -18.162500 -13.585098 -0.041000
		CHANNELS 3 Xrotation Yrotation Zrotation
		JOINT mixamorig:RightLeg
		{
			OFFSET -0.595024 -80.945297 -3.631900
			CHANNELS 3 Xrotation Yrotation Zrotation
			JOINT mixamorig:RightFoot
			{
				OFFSET 0.595024 -83.218193 -6.561200
				CHANNELS 3 Xrotation Yrotation Zrotation
				JOINT mixamorig:RightToeBase
				{
					OFFSET -0.753601 -20.807106 25.115000
					CHANNELS 3 Xrotation Yrotation Zrotation
					JOINT mixamorig:RightToe_End
					{
						OFFSET 0.000299 0.001700 19.918200
						CHANNELS 3 Xrotation Yrotation Zrotation
						End Site
						{
							OFFSET 0.000000 19.918203 0.000000
						}
					}
				}
			}
		}
	}
}
MOTION
Frames: 4
Frame Time: 0.033333
-16.792316 114.734818 -0.428540 1.981161 -27.574920 12.675378 3.445812 8.389668 -11.888115 0.058399 1.201429 -3.182723 0.089861 1.185381 -3.187869 0.749858 1.488005 4.571509 -2.986784 13.300953 -0.286351 0.000000 0.000000 -0.000000 0.000000 0.000000 -0.000000 0.000000 0.000000 -0.000000 0.083837 4.408280 -4.069465 22.612496 -41.773010 -44.420562 -0.000014 -12.295187 -0.000004 -20.294755 -9.951484 -1.399136 0.148571 1.425423 -11.899460 0.149349 1.429197 -11.931434 0.037328 0.717536 -5.956793 0.000003 0.000001 -0.000000 -1.603417 7.892524 6.769908 4.926071 20.313853 1.639074 -0.019486 7.743194 3.137789 -0.000002 0.000003 0.000003 0.148960 1.427319 -11.915446 0.148961 1.427321 -11.915425 0.037336 0.717532 -5.956806 -0.000002 -0.000001 -0.000001 0.148964 1.427321 -11.915448 0.148959 1.427323 -11.915436 0.037331 0.717537 -5.956802 0.000002 -0.000000 -0.000000 0.971365 5.397668 -11.454012 0.143715 -2.628308 -12.415230 0.037320 0.717528 -5.956805 0.000002 -0.000001 -0.000001 4.976352 8.441043 9.204504 56.050701 58.802997 15.017165 0.000005 33.972391 0.000002 -27.498307 -8.981194 -1.701655 0.284928 -1.973808 16.426969 0.284937 -1.973819 16.426965 0.071577 -0.997151 8.211020 -0.000001 0.000000 0.000001 -1.849240 -3.581235 -6.586039 5.450903 -17.742378 -0.843541 -0.852622 -4.404656 -2.580745 0.000001 0.000002 0.000002 0.284933 -1.973812 16.426965 0.284941 -1.973809 16.426965 0.071580 -0.997146 8.211031 0.000001 -0.000002 0.000000 0.284925 -1.973811 16.426975 0.284945 -1.973825 16.426953 0.071572 -0.997141 8.211025 -0.000002 -0.000000 -0.000003 0.284931 -1.973805 16.426982 0.284945 -1.973832 16.426945 0.071572 -0.997124 8.211040 0.000000 0.000001 0.000001 -81.250428 -4.882804 36.764128 98.360352 2.183313 -5.080936 -4.558982 1.075218 -14.476219 -3.520844 -0.000001 0.000001 -0.000000 -0.000001 -0.000000 -21.490282 -8.622673 -14.774650 114.105735 -8.496616 1.843071 11.453250 -2.716296 10.658619 6.316275 -1.270862 -11.367985 0.000003 -0.000001 -0.000001 
-16.830389 114.739975 -0.426567 1.946845 -27.546144 12.673022 3.472544 8.333219 -11.888120 0.019930 1.195088 -3.194704 0.051494 1.178147 -3.200566 0.834941 1.507118 4.562418 -3.035748 13.362260 -0.246773 -0.000000 -0.000000 -0.000000 -0.000000 -0.000000 -0.000000 -0.000000 -0.000000 -0.000000 0.090849 4.342539 -4.019925 22.475378 -41.590938 -44.588445 0.000004 -12.336199 -0.000001 -20.410723 -9.989748 -1.496383 0.148562 1.425434 -11.899463 0.149357 1.429216 -11.931440 0.037340 0.717535 -5.956799 -0.000002 -0.000000 -0.000001 -1.603411 7.892529 6.769935 4.926067 20.314026 1.639101 -0.019474 7.743274 3.137777 0.000001 0.000001 0.000001 0.148962 1.427317 -11.915459 0.148955 1.427325 -11.915445 0.037334 0.717543 -5.956798 -0.000000 -0.000002 0.000001 0.148968 1.427324 -11.915443 0.148959 1.427325 -11.915454 0.037330 0.717539 -5.956804 -0.000002 -0.000001 0.000001 0.971361 5.397662 -11.453998 0.143714 -2.628295 -12.415215 0.037334 0.717528 -5.956809 -0.000003 0.000000 0.000000 5.015706 8.605973 9.204079 55.103497 58.804179 16.092499 -0.000009 33.638292 0.000004 -27.276272 -8.870208 -1.523560 0.284925 -1.973796 16.426827 0.284936 -1.973807 16.426818 0.071581 -0.997130 8.210959 0.000006 -0.000002 -0.000001 -1.849217 -3.580699 -6.585973 5.450893 -17.742064 -0.843498 -0.852636 -4.404507 -2.580765 -0.000002 0.000001 0.000000 0.284929 -1.973802 16.426820 0.284931 -1.973794 16.426834 0.071585 -0.997125 8.210963 -0.000000 0.000002 0.000001 0.284927 -1.973801 16.426829 0.284928 -1.973806 16.426830 0.071581 -0.997129 8.210955 -0.000002 -0.000000 0.000000 0.284933 -1.973793 16.426835 0.284931 -1.973805 16.426832 0.071577 -0.997129 8.210958 -0.000004 0.000001 0.000004 -81.204461 -4.897210 36.702646 98.351835 2.229139 -5.085357 -4.548877 1.080807 -14.512098 -3.518143 -0.000006 0.000003 -0.000000 -0.000000 0.000000 -21.484107 -8.656384 -14.798563 114.096842 -8.499834 1.838156 11.570187 -2.709630 10.667182 6.251026 -1.243538 -11.242360 -0.000003 0.000001 0.000003 
-16.871683 114.752151 -0.473972 1.909751 -27.526875 12.665192 3.524842 8.282081 -11.926718 0.010342 1.191218 -3.176722 0.041385 1.173897 -3.182860 0.845811 1.526647 4.515208 -3.130904 13.381844 -0.196908 0.000000 -0.000000 -0.000000 0.000000 -0.000000 -0.000000 0.000000 -0.000000 -0.000000 0.092476 4.335871 -4.028894 22.391773 -41.529944 -44.616886 0.000008 -12.371213 0.000009 -20.374926 -10.049028 -1.513227 0.148562 1.425430 -11.899467 0.149344 1.429205 -11.931441 0.037337 0.717532 -5.956805 0.000002 0.000000 0.000001 -1.603414 7.892513 6.769908 4.926063 20.314098 1.639124 -0.019472 7.743296 3.137791 -0.000001 -0.000000 -0.000000 0.148960 1.427318 -11.915457 0.148963 1.427330 -11.915441 0.037338 0.717534 -5.956795 -0.000000 -0.000000 -0.000001 0.148958 1.427323 -11.915451 0.148957 1.427327 -11.915458 0.037337 0.717535 -5.956800 0.000001 0.000001 0.000001 0.971376 5.397655 -11.454014 0.143706 -2.628290 -12.415202 0.037311 0.717533 -5.956803 -0.000001 -0.000001 -0.000001 5.044239 8.696123 9.203601 54.771697 58.818509 16.469478 0.000015 33.441282 -0.000006 -27.435243 -8.786143 -1.447022 0.284885 -1.973659 16.425575 0.284884 -1.973660 16.425584 0.071561 -0.997051 8.210339 0.000000 -0.000000 0.000001 -1.849260 -3.583988 -6.586475 5.450921 -17.742227 -0.843508 -0.852633 -4.404583 -2.580771 -0.000001 -0.000003 -0.000001 0.284889 -1.973662 16.425572 0.284893 -1.973642 16.425596 0.071568 -0.997067 8.210319 -0.000003 -0.000000 -0.000001 0.284883 -1.973660 16.425574 0.284891 -1.973659 16.425594 0.071565 -0.997053 8.210336 -0.000004 -0.000001 -0.000003 0.284895 -1.973656 16.425575 0.284887 -1.973658 16.425592 0.071561 -0.997051 8.210335 0.000002 0.000002 0.000002 -81.153139 -4.915037 36.686503 98.313798 2.256427 -5.123941 -4.505563 1.078790 -14.508992 -3.515225 -0.000001 0.000001 0.000000 -0.000001 -0.000000 -21.488207 -8.712459 -14.804981 114.077177 -8.495411 1.836654 11.676893 -2.752220 10.528466 6.202662 -1.223497 -11.149941 -0.000001 -0.000000 0.000000 
-16.873390 114.758270 -0.541965 1.898934 -27.558951 12.667201 3.567590 8.283932 -11.966871 0.036344 1.194152 -3.139630 0.066637 1.177241 -3.145434 0.776814 1.539623 4.464988 -3.180779 13.395046 -0.220508 0.000000 -0.000000 -0.000000 0.000000 -0.000000 -0.000000 0.000000 -0.000000 -0.000000 0.087345 4.422139 -4.156242 22.484921 -41.660660 -44.397387 0.000002 -12.391186 0.000017 -20.221267 -10.124197 -1.394124 0.148552 1.425435 -11.899462 0.149366 1.429204 -11.931440 0.037323 0.717539 -5.956788 0.000001 0.000001 -0.000000 -1.603430 7.892542 6.769927 4.926056 20.313620 1.639074 -0.019494 7.743070 3.137774 0.000000 -0.000001 0.000000 0.148958 1.427321 -11.915438 0.148970 1.427321 -11.915445 0.037335 0.717539 -5.956784 -0.000001 -0.000001 0.000000 0.148958 1.427324 -11.915439 0.148961 1.427320 -11.915456 0.037338 0.717536 -5.956774 0.000000 -0.000001 -0.000001 0.971350 5.397671 -11.454010 0.143725 -2.628304 -12.415208 0.037329 0.717530 -5.956787 0.000001 -0.000001 -0.000001 5.039303 8.708371 9.203847 54.614674 58.773771 16.568968 -0.000007 33.383345 0.000010 -27.595728 -8.779728 -1.451346 0.284890 -1.973656 16.425611 0.284885 -1.973657 16.425613 0.071562 -0.997048 8.210350 0.000000 0.000001 -0.000000 -1.849318 -3.586465 -6.586885 5.450987 -17.743168 -0.843537 -0.852589 -4.405058 -2.580802 -0.000004 0.000002 0.000001 0.284892 -1.973651 16.425621 0.284882 -1.973652 16.425601 0.071566 -0.997060 8.210344 -0.000001 -0.000002 0.000001 0.284894 -1.973660 16.425620 0.284884 -1.973658 16.425611 0.071567 -0.997053 8.210347 0.000000 -0.000002 -0.000002 0.284894 -1.973651 16.425613 0.284883 -1.973663 16.425606 0.071557 -0.997045 8.210354 -0.000002 0.000001 0.000001 -81.120067 -4.928606 36.718872 98.284776 2.293002 -5.166823 -4.460159 1.074415 -14.497927 -3.513273 0.000004 -0.000001 -0.000000 -0.000000 0.000000 -21.529467 -8.711780 -14.793555 114.094355 -8.493005 1.822091 11.725323 -2.792847 10.453193 6.191254 -1.218791 -11.128283 -0.000001 0.000001 0.000000 
